<svg xmlns="http://www.w3.org/2000/svg" viewBox="0 0 1448 1448"><path d="M1258.81 182.44c46.33 46.4 68.17 101.54 68.18 166.61q.04 387.86-.2 775.69c-.04 76.29-36.95 143.76-98.35 187.96-40.16 28.9-85.12 42.25-134.76 42.26q-386.34.08-772.69.02-12.87 0-19.99-.49-75.64-5.17-133.07-54.92c-53.78-46.59-81.89-106.97-81.9-178.12q-.07-384.72-.01-769.45 0-13.8.33-19.98 3.73-71.23 47.71-127.2c41-52.18 99.31-85.75 166.15-90.19 15.96-1.06 33.75-.63 50.6-.64q359.89-.24 719.79-.22c10.89.01 24.56-.18 36.58.47q88.36 4.81 151.63 68.2Zm-754.67 746.3c75.37 76.89 163.17 142.04 264.78 179.7 29.37 10.89 58.54 23.05 89.12 31.13 13.44 3.56 27.23 5.6 41.03 7.29 51.7 6.3 105.93-13.03 150.24-38.29 20.46-11.66 42.69-29.57 52.45-51.3 11.58-25.79 19.82-58.73 18.14-87.9-.44-7.7-2.85-11.42-8.84-15.7q-13.98-9.99-16.64-11.6c-37.73-22.9-78.19-44.09-115.28-64.53-16.84-9.28-30.89-22.92-49.57-28.59-18.94-5.75-36.3 12.78-47.6 25.54q-22.42 25.33-44.37 51.05c-7.72 9.04-24.74 28.99-37.85 27.97-11.38-.87-25.74-8.23-35.63-14.09q-20.81-12.31-41.56-24.72c-79.08-47.31-147.58-115.51-195.13-194.39q-13.57-22.51-26.92-45.15-8.91-15.11-12.27-28.9c-4.22-17.38 16.79-34.69 28.03-44.86 8.81-7.97 19.88-16.34 30.06-24.26 14.25-11.09 45.11-35.82 46.87-55.2 1.44-15.85-12.41-33.53-21.24-46.33q-4.32-6.26-8.07-13.28-27.74-51.92-56.87-103.06-9.74-17.11-22.2-32.33c-5.82-7.1-15.95-6.47-24.58-6.02q-35.57 1.87-68.52 14.97c-32.32 12.85-50.71 38.61-66.2 68.39-20.56 39.54-35.71 86.09-32.15 130.28 1.69 20.9 5.69 42 12 62.26 8.41 26.96 19.02 53.22 28.82 79.64 35.99 96.99 98.06 178.92 169.95 252.28Z"/></svg>